<svg width="212" height="212" viewBox="0 0 212 212" fill="none" xmlns="http://www.w3.org/2000/svg">
<path d="M126.934 0.731176C167.066 -4.52869 225.658 17.8042 209.134 93.3394C191.034 176.089 91.9899 231.274 37.7083 205.694C5.71804 190.633 -9.50875 150.134 6.29678 104.75C25.7943 48.8173 85.0051 6.22098 126.934 0.731176ZM172.295 126.882C177.863 119.581 194.706 99.8927 176.546 100.812C163.314 117.742 149.584 133.205 133.938 145.392C129.109 149.157 109.991 160.281 108.135 164.161C105.261 170.225 112.026 173.761 115.658 173.588C119.011 173.416 128.211 167.437 131.763 165.196C146.471 155.912 160.441 142.374 172.275 126.882H172.295Z" fill="black"/>
<ellipse cx="15.077" cy="8.53852" rx="15.077" ry="8.53852" transform="matrix(0.753052 -0.657961 0.387953 0.921679 55.4053 102.145)" fill="#F9F4ED"/>
<ellipse cx="15.077" cy="8.53852" rx="15.077" ry="8.53852" transform="matrix(0.753052 -0.657961 0.387953 0.921679 74.5479 122.992)" fill="#F9F4ED"/>
<ellipse cx="15.077" cy="8.53852" rx="15.077" ry="8.53852" transform="matrix(0.753052 -0.657961 0.387953 0.921679 108.727 95.0254)" fill="#F9F4ED"/>
<ellipse cx="15.077" cy="8.53852" rx="15.077" ry="8.53852" transform="matrix(0.753052 -0.657961 0.387953 0.921679 90.6035 72.8135)" fill="#F9F4ED"/>
</svg>
