<svg width="453" height="148" viewBox="0 0 453 148" fill="none" xmlns="http://www.w3.org/2000/svg">
<g clip-path="url(#clip0_819_121)">
<path d="M23.2644 21.7737V-0.000488281H0.490234L0.490846 71.5311H23.4228C23.655 67.3932 23.18 63.7198 23.94 60.1414C25.2859 51.9184 31.6722 47.0732 39.874 46.9888C48.0759 46.9043 54.9003 52.4409 54.9003 61.0228V113.749H78.3395L78.6139 57.2755C78.6773 44.2865 71.0032 32.047 58.1409 28.6586C51.0935 27.1013 44.5765 27.0752 38.9062 29.0298C33.8567 30.7705 23.2644 27.1148 23.2644 21.7737Z" fill="black"/>
</g>
<path d="M124.954 115.194C116.293 115.14 108.849 113.339 102.623 109.792C96.4326 106.209 91.6768 101.173 88.3553 94.684C85.034 88.1585 83.4011 80.4559 83.4564 71.5762C83.5105 62.9157 85.2388 55.3255 88.6415 48.8054C92.0442 42.2854 96.8082 37.2172 102.933 33.6011C109.095 29.9852 116.305 28.203 124.564 28.2545C130.118 28.2892 135.284 29.2167 140.059 31.0371C144.872 32.8212 149.058 35.4967 152.617 39.0637C156.212 42.6308 158.998 47.1065 160.975 52.4907C162.951 57.8384 163.917 64.0934 163.872 71.2556L163.832 77.6687L92.7398 77.2253L92.8301 62.7546L141.943 63.061C141.964 59.6991 141.251 56.7164 139.806 54.1128C138.36 51.5092 136.345 49.4684 133.759 47.9906C131.211 46.4764 128.237 45.7087 124.839 45.6875C121.294 45.6654 118.147 46.468 115.396 48.0953C112.682 49.6862 110.549 51.8473 108.997 54.5784C107.445 57.2729 106.641 60.2827 106.583 63.6078L106.497 77.3659C106.472 81.5317 107.216 85.1359 108.732 88.1785C110.285 91.2213 112.481 93.5737 115.321 95.2359C118.161 96.8981 121.536 97.7414 125.446 97.7658C128.04 97.7819 130.418 97.4313 132.578 96.7139C134.739 95.9965 136.591 94.9118 138.135 93.4597C139.679 92.0076 140.86 90.2243 141.677 88.1099L163.264 89.6697C162.136 94.8519 159.86 99.3691 156.437 103.221C153.052 107.037 148.684 110.007 143.336 112.129C138.024 114.216 131.897 115.237 124.954 115.194ZM168.04 113.818L168.565 29.6253L190.819 29.7641L190.727 44.6185L191.713 44.6246C193.498 39.7024 196.446 35.8289 200.556 33.0041C204.667 30.1794 209.572 28.7848 215.273 28.8203C221.047 28.8563 225.953 30.3304 229.991 33.2425C234.029 36.1181 236.709 40.0085 238.031 44.9135L238.908 44.919C240.655 40.1062 243.785 36.2703 248.298 33.4116C252.847 30.5165 258.21 29.0882 264.386 29.1267C272.242 29.1757 278.603 31.7186 283.468 36.7554C288.371 41.7559 290.793 48.8239 290.736 57.9595L290.383 114.581L267.087 114.436L267.412 62.4184C267.441 57.7411 266.221 54.2253 263.75 51.8711C261.28 49.5169 258.181 48.3282 254.454 48.3049C250.215 48.2785 246.9 49.6099 244.507 52.2992C242.116 54.9519 240.906 58.4708 240.879 62.8559L240.558 114.271L217.92 114.129L218.248 61.6184C218.273 57.4892 217.106 54.193 214.746 51.7298C212.423 49.2669 209.343 48.0235 205.506 47.9996C202.911 47.9834 200.569 48.6266 198.477 49.9291C196.423 51.1953 194.786 52.994 193.565 55.3252C192.345 57.6198 191.725 60.3201 191.706 63.4262L191.391 113.964L168.04 113.818ZM368.449 54.8812L347.064 56.0634C346.71 54.234 345.935 52.5847 344.738 51.1155C343.541 49.6098 341.959 48.4122 339.991 47.5229C338.06 46.5973 335.743 46.126 333.039 46.1092C329.421 46.0866 326.365 46.8349 323.871 48.3542C321.376 49.8369 320.121 51.839 320.106 54.3604C320.093 56.3702 320.886 58.0744 322.486 59.4731C324.085 60.8717 326.837 62.0034 330.742 62.8683L345.96 66.0329C354.135 67.7649 360.221 70.5071 364.217 74.2594C368.214 78.0118 370.193 82.921 370.155 88.9869C370.121 94.5048 368.465 99.3365 365.186 103.482C361.945 107.628 357.503 110.852 351.861 113.156C346.255 115.423 339.798 116.534 332.49 116.488C321.345 116.419 312.479 114.043 305.894 109.361C299.346 104.643 295.53 98.2603 294.448 90.214L317.422 89.1513C318.095 92.5541 319.76 95.1591 322.416 96.9663C325.073 98.7369 328.484 99.6352 332.65 99.6612C336.743 99.6868 340.036 98.9216 342.531 97.3658C345.062 95.7737 346.354 93.717 346.406 91.1959C346.383 89.0762 345.499 87.3349 343.753 85.9719C342.008 84.5723 339.31 83.4957 335.661 82.7421L321.098 79.7461C312.887 78.0504 306.784 75.1619 302.789 71.0807C298.832 66.9996 296.872 61.8165 296.912 55.5313C296.945 50.1231 298.436 45.4731 301.384 41.5813C304.368 37.6897 308.534 34.7009 313.883 32.6147C319.268 30.5288 325.559 29.5083 332.758 29.5532C343.392 29.6195 351.746 31.9191 357.821 36.4518C363.932 40.9848 367.475 47.1279 368.449 54.8812ZM388.11 146.764C385.15 146.746 382.375 146.491 379.783 146C377.228 145.545 375.112 144.966 373.435 144.261L378.806 126.863C381.542 127.721 384.005 128.193 386.197 128.28C388.426 128.367 390.348 127.867 391.962 126.781C393.614 125.695 394.959 123.84 395.999 121.215L397.391 117.661L367.729 30.8676L392.286 31.0208L409.33 92.9588L410.207 92.9642L428.188 31.2448L452.909 31.399L419.604 124.487C418.004 129.008 415.842 132.941 413.117 136.286C410.428 139.668 407.031 142.26 402.927 144.061C398.823 145.899 393.884 146.801 388.11 146.764Z" fill="black"/>
<defs>
<clipPath id="clip0_819_121">
<rect width="78.6198" height="113.897" fill="white"/>
</clipPath>
</defs>
</svg>
