<svg width="58" height="18" viewBox="0 0 58 18" fill="none" xmlns="http://www.w3.org/2000/svg">
<path d="M-0.000595246 13.7236V0.000143856H2.9009V5.66242H8.79101V0.000143856H11.6858V13.7236H8.79101V8.05465H2.9009V13.7236H-0.000595246ZM17.3942 13.9247C16.3354 13.9247 15.4241 13.7102 14.6602 13.2814C13.9008 12.848 13.3156 12.236 12.9046 11.4453C12.4936 10.6501 12.2881 9.70978 12.2881 8.62423C12.2881 7.56549 12.4936 6.63629 12.9046 5.83665C13.3156 5.037 13.8941 4.41382 14.6401 3.96709C15.3906 3.52036 16.2707 3.297 17.2803 3.297C17.9593 3.297 18.5914 3.40645 19.1766 3.62534C19.7663 3.83977 20.2801 4.16365 20.7179 4.59698C21.1601 5.0303 21.5041 5.57531 21.7498 6.232C21.9955 6.88422 22.1183 7.64813 22.1183 8.52372V9.30773H13.4272V7.53868H19.4313C19.4313 7.12769 19.3419 6.76361 19.1632 6.44643C18.9845 6.12925 18.7366 5.88132 18.4194 5.70263C18.1067 5.51947 17.7426 5.42789 17.3272 5.42789C16.8939 5.42789 16.5097 5.5284 16.1746 5.72943C15.844 5.92599 15.5849 6.1918 15.3973 6.52684C15.2097 6.85742 15.1136 7.22597 15.1092 7.63249V9.31443C15.1092 9.8237 15.203 10.2637 15.3906 10.6345C15.5827 11.0053 15.853 11.2912 16.2014 11.4922C16.5499 11.6933 16.9631 11.7938 17.4411 11.7938C17.7583 11.7938 18.0487 11.7491 18.3122 11.6597C18.5758 11.5704 18.8014 11.4364 18.989 11.2577C19.1766 11.079 19.3196 10.8601 19.4179 10.601L22.058 10.7752C21.924 11.4096 21.6493 11.9635 21.2338 12.4371C20.8228 12.9061 20.2912 13.2724 19.639 13.536C18.9912 13.7951 18.243 13.9247 17.3942 13.9247ZM22.6603 13.7236V3.43102H25.3809V5.24697H25.5015C25.7159 4.64388 26.0733 4.16812 26.5737 3.81967C27.074 3.47122 27.6726 3.297 28.3695 3.297C29.0753 3.297 29.6762 3.47346 30.172 3.82637C30.6679 4.17482 30.9985 4.64835 31.1638 5.24697H31.271C31.481 4.65729 31.8607 4.18599 32.4102 3.83307C32.9641 3.47569 33.6186 3.297 34.3735 3.297C35.334 3.297 36.1135 3.60301 36.7121 4.21502C37.3152 4.82257 37.6168 5.68476 37.6168 6.80158V13.7236H34.7689V7.36446C34.7689 6.79265 34.617 6.36379 34.3132 6.07788C34.0094 5.79197 33.6297 5.64902 33.1741 5.64902C32.6559 5.64902 32.2516 5.81431 31.9612 6.14489C31.6708 6.471 31.5256 6.90209 31.5256 7.43817V13.7236H28.7582V7.30415C28.7582 6.79935 28.613 6.39729 28.3226 6.09798C28.0367 5.79868 27.6592 5.64902 27.1901 5.64902C26.873 5.64902 26.5871 5.72943 26.3324 5.89025C26.0823 6.04661 25.8835 6.26774 25.736 6.55365C25.5886 6.83508 25.5149 7.16566 25.5149 7.54538V13.7236H22.6603ZM47.3032 6.36602L44.6899 6.52684C44.6452 6.30348 44.5491 6.10245 44.4017 5.92376C44.2543 5.7406 44.06 5.59541 43.8187 5.4882C43.582 5.37652 43.2983 5.32068 42.9677 5.32068C42.5255 5.32068 42.1524 5.41449 41.8487 5.60211C41.5449 5.78527 41.393 6.03097 41.393 6.33922C41.393 6.58492 41.4913 6.79265 41.6879 6.9624C41.8844 7.13216 42.2217 7.26841 42.6997 7.37116L44.5625 7.74641C45.5632 7.9519 46.3093 8.28248 46.8007 8.73815C47.2921 9.19381 47.5378 9.79242 47.5378 10.534C47.5378 11.2086 47.339 11.8005 46.9414 12.3097C46.5483 12.819 46.0077 13.2166 45.3198 13.5025C44.6363 13.7839 43.8478 13.9247 42.9543 13.9247C41.5918 13.9247 40.5063 13.641 39.6977 13.0736C38.8936 12.5018 38.4223 11.7245 38.2838 10.7417L41.0915 10.5943C41.1763 11.0098 41.3818 11.3269 41.708 11.5458C42.0341 11.7603 42.4518 11.8675 42.961 11.8675C43.4614 11.8675 43.8634 11.7714 44.1672 11.5793C44.4754 11.3828 44.6318 11.1304 44.6363 10.8221C44.6318 10.563 44.5223 10.3508 44.3079 10.1855C44.0935 10.0158 43.7629 9.88624 43.3162 9.79689L41.5337 9.44174C40.5286 9.24072 39.7803 8.89227 39.2889 8.3964C38.802 7.90053 38.5585 7.26841 38.5585 6.50004C38.5585 5.83888 38.7372 5.2693 39.0946 4.7913C39.4564 4.3133 39.9635 3.94475 40.6157 3.68565C41.2724 3.42655 42.0408 3.297 42.9208 3.297C44.2208 3.297 45.2438 3.57174 45.9898 4.12121C46.7403 4.67069 47.1781 5.41896 47.3032 6.36602ZM49.588 17.5834C49.2262 17.5834 48.8867 17.5543 48.5695 17.4963C48.2568 17.4426 47.9977 17.3734 47.7922 17.2885L48.4355 15.1576C48.7705 15.2604 49.0721 15.3162 49.3401 15.3252C49.6126 15.3341 49.8471 15.2715 50.0437 15.1375C50.2447 15.0035 50.4078 14.7757 50.5329 14.454L50.7004 14.0185L47.0082 3.43102H50.0102L52.1411 10.9897H52.2483L54.3993 3.43102H57.4214L53.421 14.836C53.2289 15.3899 52.9675 15.8724 52.637 16.2834C52.3108 16.6988 51.8976 17.0183 51.3973 17.2416C50.897 17.4694 50.2939 17.5834 49.588 17.5834Z" fill="black"/>
</svg>
