<svg width="453" height="148" viewBox="0 0 453 148" fill="none" xmlns="http://www.w3.org/2000/svg">
<mask id="mask0_857_74" style="mask-type:luminance" maskUnits="userSpaceOnUse" x="0" y="0" width="79" height="114">
<path d="M78.6198 0H0V113.897H78.6198V0Z" fill="white"/>
</mask>
<g mask="url(#mask0_857_74)">
<path d="M23.2644 21.7742V0H0.490234L0.490846 71.5316H23.4228C23.655 67.3937 23.18 63.7203 23.94 60.1419C25.2859 51.9189 31.6722 47.0737 39.874 46.9893C48.0759 46.9048 54.9003 52.4414 54.9003 61.0233V113.749H78.3395L78.6139 57.276C78.6773 44.287 71.0032 32.0475 58.1409 28.6591C51.0935 27.1018 44.5765 27.0757 38.9062 29.0303C33.8567 30.771 23.2644 27.1153 23.2644 21.7742Z" fill="white"/>
</g>
<path d="M124.954 115.194C116.293 115.14 108.849 113.339 102.623 109.792C96.4326 106.209 91.6768 101.173 88.3553 94.6845C85.034 88.159 83.4011 80.4564 83.4564 71.5767C83.5105 62.9162 85.2388 55.326 88.6415 48.8059C92.0442 42.2859 96.8082 37.2177 102.933 33.6016C109.095 29.9857 116.305 28.2035 124.564 28.255C130.118 28.2897 135.284 29.2172 140.059 31.0376C144.872 32.8217 149.058 35.4972 152.617 39.0642C156.212 42.6313 158.998 47.107 160.975 52.4912C162.951 57.8389 163.917 64.0939 163.872 71.2561L163.832 77.6692L92.7398 77.2258L92.8301 62.7551L141.943 63.0615C141.964 59.6996 141.251 56.7169 139.806 54.1133C138.36 51.5097 136.345 49.4689 133.759 47.9911C131.211 46.4769 128.237 45.7092 124.839 45.688C121.294 45.6659 118.147 46.4685 115.396 48.0958C112.682 49.6867 110.549 51.8478 108.997 54.5789C107.445 57.2734 106.641 60.2832 106.583 63.6083L106.497 77.3664C106.472 81.5322 107.216 85.1364 108.732 88.179C110.285 91.2218 112.481 93.5742 115.321 95.2364C118.161 96.8986 121.536 97.7419 125.446 97.7663C128.04 97.7824 130.418 97.4318 132.578 96.7144C134.739 95.997 136.591 94.9123 138.135 93.4602C139.679 92.0081 140.86 90.2248 141.677 88.1104L163.264 89.6702C162.136 94.8524 159.86 99.3696 156.437 103.221C153.052 107.037 148.684 110.007 143.336 112.129C138.024 114.216 131.897 115.237 124.954 115.194ZM168.04 113.818L168.565 29.6258L190.819 29.7646L190.727 44.619L191.713 44.6251C193.498 39.7029 196.446 35.8294 200.556 33.0046C204.667 30.1799 209.572 28.7853 215.273 28.8208C221.047 28.8568 225.953 30.3309 229.991 33.243C234.029 36.1186 236.709 40.009 238.031 44.914L238.908 44.9195C240.655 40.1067 243.785 36.2708 248.298 33.4121C252.847 30.517 258.21 29.0887 264.386 29.1272C272.242 29.1762 278.603 31.7191 283.468 36.7559C288.371 41.7564 290.793 48.8244 290.736 57.96L290.383 114.581L267.087 114.436L267.412 62.4189C267.441 57.7416 266.221 54.2258 263.75 51.8716C261.28 49.5174 258.181 48.3287 254.454 48.3054C250.215 48.279 246.9 49.6104 244.507 52.2997C242.116 54.9524 240.906 58.4713 240.879 62.8564L240.558 114.271L217.92 114.129L218.248 61.6189C218.273 57.4897 217.106 54.1935 214.746 51.7303C212.423 49.2674 209.343 48.024 205.506 48.0001C202.911 47.9839 200.569 48.6271 198.477 49.9296C196.423 51.1958 194.786 52.9945 193.565 55.3257C192.345 57.6203 191.725 60.3206 191.706 63.4267L191.391 113.964L168.04 113.818ZM368.449 54.8817L347.064 56.0639C346.71 54.2345 345.935 52.5852 344.738 51.116C343.541 49.6103 341.959 48.4127 339.991 47.5234C338.06 46.5978 335.743 46.1265 333.039 46.1097C329.421 46.0871 326.365 46.8354 323.871 48.3547C321.376 49.8374 320.121 51.8395 320.106 54.3609C320.093 56.3707 320.886 58.0749 322.486 59.4736C324.085 60.8722 326.837 62.0039 330.742 62.8688L345.96 66.0334C354.135 67.7654 360.221 70.5076 364.217 74.2599C368.214 78.0123 370.193 82.9215 370.155 88.9874C370.121 94.5053 368.465 99.337 365.186 103.482C361.945 107.628 357.503 110.852 351.861 113.156C346.255 115.423 339.798 116.534 332.49 116.488C321.345 116.419 312.479 114.043 305.894 109.361C299.346 104.643 295.53 98.2608 294.448 90.2145L317.422 89.1518C318.095 92.5546 319.76 95.1596 322.416 96.9668C325.073 98.7374 328.484 99.6357 332.65 99.6617C336.743 99.6873 340.036 98.9221 342.531 97.3663C345.062 95.7742 346.354 93.7175 346.406 91.1964C346.383 89.0767 345.499 87.3354 343.753 85.9724C342.008 84.5728 339.31 83.4962 335.661 82.7426L321.098 79.7466C312.887 78.0509 306.784 75.1624 302.789 71.0812C298.832 67.0001 296.872 61.817 296.912 55.5318C296.945 50.1236 298.436 45.4736 301.384 41.5818C304.368 37.6902 308.534 34.7014 313.883 32.6152C319.268 30.5293 325.559 29.5088 332.758 29.5537C343.392 29.62 351.746 31.9196 357.821 36.4523C363.932 40.9853 367.475 47.1284 368.449 54.8817ZM388.11 146.764C385.15 146.746 382.375 146.491 379.783 146C377.228 145.545 375.112 144.966 373.435 144.261L378.806 126.863C381.542 127.721 384.005 128.193 386.197 128.28C388.426 128.367 390.348 127.867 391.962 126.781C393.614 125.695 394.959 123.84 395.999 121.215L397.391 117.661L367.729 30.8681L392.286 31.0213L409.33 92.9593L410.207 92.9647L428.188 31.2453L452.909 31.3995L419.604 124.487C418.004 129.008 415.842 132.941 413.117 136.286C410.428 139.668 407.031 142.26 402.927 144.061C398.823 145.899 393.884 146.801 388.11 146.764Z" fill="white"/>
</svg>
